<?xml version="1.0" encoding="utf-8"?>
<!-- Generator: Adobe Illustrator 22.0.0, SVG Export Plug-In . SVG Version: 6.00 Build 0)  -->
<svg version="1.1" id="Layer_1" xmlns="http://www.w3.org/2000/svg" xmlns:xlink="http://www.w3.org/1999/xlink" x="0px" y="0px"
	 viewBox="0 0 500 500" style="enable-background:new 0 0 500 500;" xml:space="preserve">
<style type="text/css">
	.st0{fill:#FF3F94;}
	.st1{fill:#2E0013;}
</style>
<rect id="XMLID_3_" class="st0" width="500" height="500"/>
<rect id="XMLID_5_" x="22" y="22" class="st1" width="456" height="456"/>
<g id="XMLID_10_">
	<g id="XMLID_62_">
		<path id="XMLID_63_" class="st0" d="M185.2,342.1c0,2.1-0.6,3.1-2.7,3.1h-30.8c-1.8,0-2.4-1-2.4-3.1V123.3c0-2.1,0.9-2.4,2.4-2.4
			h31.1c1.8,0,2.4,0.3,2.4,2.4V342.1z"/>
	</g>
</g>
<g id="XMLID_6_">
	<g id="XMLID_69_">
		<path id="XMLID_70_" class="st0" d="M221.4,265c0-49.1,31.1-90.3,80.5-90.3c6.7,0,11.6,0.7,16.6,2.4v-54.9c0-1.7,0.6-2.4,1.7-2.4
			h31.7c1.2,0,1.5,0.7,1.5,2v185.5c0,7.1,0.6,16.2,0.9,21.7c0.3,1.7,0,2.4-1.5,3.4c-18.3,10.5-39,16.6-58.1,16.6
			C251.9,348.9,221.4,321.5,221.4,265z M318.5,209.1c-4.4-2-10.5-3-17.2-3c-26.2,0-43.9,22.3-43.9,56.8c0,38.2,19.2,53.5,41.3,53.5
			c7.3,0,14.5-1.4,19.8-3.4V209.1z"/>
	</g>
</g>
</svg>
