<?xml version="1.0" encoding="utf-8"?>
<!-- Generator: Adobe Illustrator 18.1.1, SVG Export Plug-In . SVG Version: 6.00 Build 0)  -->
<svg version="1.1" id="Layer_1" xmlns="http://www.w3.org/2000/svg" xmlns:xlink="http://www.w3.org/1999/xlink" x="0px" y="0px"
	 viewBox="0 0 121.3 121.3" enable-background="new 0 0 121.3 121.3" xml:space="preserve">
<g>
	<rect x="2.5" y="2.5" fill="#454545" width="116.3" height="116.3"/>
	<path fill="#20B24B" d="M121.3,121.3H0V0h121.3V121.3z M5,116.3h111.3V5H5V116.3z"/>
</g>
<g>
	<path fill="#20B24B" d="M41.5,79.4c-0.2,0.3-0.6,0.5-1,0.5c-0.4,0-0.8-0.1-1.1-0.4L21.5,62.8c-0.3-0.3-0.5-0.7-0.5-1.1
		s0.2-0.8,0.5-1.1l17.8-16.7c0.3-0.2,0.7-0.4,1.1-0.4c0.4,0,0.7,0.2,1,0.5l5.3,5.7c0.3,0.3,0.5,0.7,0.4,1.1c0,0.4-0.2,0.7-0.4,1
		l-11.3,9.9l11.3,9.9c0.2,0.2,0.4,0.6,0.4,1c0,0.4-0.1,0.8-0.4,1.1L41.5,79.4z M55.6,93.3c0.4,0.2,0.8,0.1,1.1-0.1
		c0.3-0.2,0.6-0.5,0.7-0.9l16.8-58.2c0.2-0.4,0.1-0.8-0.1-1.1c-0.2-0.3-0.5-0.6-0.9-0.7L65.7,30c-0.4-0.1-0.8,0-1.1,0.2
		c-0.3,0.2-0.6,0.5-0.7,0.9L47,89.3c-0.2,0.4-0.1,0.8,0.1,1.1c0.2,0.3,0.5,0.6,0.9,0.7L55.6,93.3z M81.9,79.5
		c-0.3,0.2-0.7,0.4-1.1,0.4c-0.4,0-0.7-0.2-1-0.5l-5.3-5.7c-0.3-0.3-0.5-0.7-0.4-1.1c0-0.4,0.2-0.7,0.4-1l11.3-9.9l-11.3-9.9
		c-0.2-0.2-0.4-0.6-0.4-1c0-0.4,0.1-0.8,0.4-1.1l5.3-5.7c0.3-0.3,0.7-0.5,1.1-0.5c0.4,0,0.7,0.1,1.1,0.4l17.8,16.7
		c0.3,0.3,0.5,0.7,0.5,1.1s-0.2,0.8-0.5,1.1L81.9,79.5z"/>
</g>
</svg>
