<?xml version="1.0" encoding="utf-8"?>
<!-- Generator: Adobe Illustrator 22.0.0, SVG Export Plug-In . SVG Version: 6.00 Build 0)  -->
<svg version="1.1" id="Layer_1" xmlns="http://www.w3.org/2000/svg" xmlns:xlink="http://www.w3.org/1999/xlink" x="0px" y="0px"
	 viewBox="0 0 121.3 121.3" style="enable-background:new 0 0 121.3 121.3;" xml:space="preserve">
<style type="text/css">
	.st0{fill:#454545;}
	.st1{fill:#D73627;}
	.st2{enable-background:new    ;}
</style>
<g>
	<rect x="2.5" y="2.5" class="st0" width="116.3" height="116.3"/>
</g>
<g>
	<path class="st1" d="M121.3,121.3H0V0h121.3V121.3z M5,116.3h111.3V5H5V116.3z"/>
</g>
<g class="st2">
	<path class="st1" d="M49.1,42H37v36h-8.5V42h-12v-6.6h32.6V42z"/>
	<path class="st1" d="M70.2,73.4c-1,1.7-2.2,2.9-3.7,3.8c-1.5,0.9-3.2,1.3-5.2,1.3c-3.3,0-5.9-1.1-7.8-3.2c-1.9-2.1-2.8-5.5-2.8-10
		V46.3h8.5v19.2c0,2.3,0.4,4,1.2,5c0.8,1,1.9,1.5,3.5,1.5c1.4,0,2.5-0.2,3.5-0.7c1-0.4,1.8-1.1,2.4-2V46.3h8.5V78H71L70.2,73.4z"/>
	<path class="st1" d="M94.9,38.6v7.8h5.3v6h-5.3v16.1c0,1.2,0.3,2.1,0.8,2.6c0.5,0.5,1.2,0.8,2,0.8c0.4,0,0.8,0,1.2-0.1
		c0.3,0,0.7-0.1,1.1-0.2l0.7,6.2c-0.9,0.3-1.7,0.5-2.5,0.7c-0.8,0.1-1.7,0.2-2.7,0.2c-2.9,0-5.2-0.8-6.8-2.4
		c-1.6-1.6-2.4-4.2-2.4-7.7V52.3h-4.6v-6h4.6v-7.8H94.9z"/>
</g>
</svg>
