<?xml version="1.0" encoding="utf-8"?>
<!-- Generator: Adobe Illustrator 22.0.0, SVG Export Plug-In . SVG Version: 6.00 Build 0)  -->
<svg version="1.1" id="Layer_1" xmlns="http://www.w3.org/2000/svg" xmlns:xlink="http://www.w3.org/1999/xlink" x="0px" y="0px"
	 viewBox="0 0 121.3 121.3" style="enable-background:new 0 0 121.3 121.3;" xml:space="preserve">
<style type="text/css">
	.st0{fill:#454545;}
	.st1{fill:#548FCC;}
	.st2{enable-background:new    ;}
</style>
<g>
	<rect x="2.5" y="2.5" class="st0" width="116.3" height="116.3"/>
</g>
<g>
	<path class="st1" d="M121.3,121.3H0V0h121.3V121.3z M5,116.3h111.3V5H5V116.3z"/>
</g>
<g class="st2">
	<path class="st1" d="M86.4,34c1.7,0,3.1,0.6,4.2,1.7s1.7,2.6,1.7,4.2v43.6c0,1.7-0.6,3.1-1.7,4.2s-2.6,1.7-4.2,1.7H34.9
		c-1.7,0-3.1-0.6-4.2-1.7s-1.7-2.6-1.7-4.2V39.9c0-1.7,0.6-3.1,1.7-4.2s2.6-1.7,4.2-1.7H86.4z M56.7,81.5V49.8H36.9v31.7H56.7z
		 M84.4,81.5V49.8H64.6v31.7H84.4z"/>
</g>
</svg>
