<?xml version="1.0" encoding="utf-8"?>
<!-- Generator: Adobe Illustrator 22.0.0, SVG Export Plug-In . SVG Version: 6.00 Build 0)  -->
<svg version="1.1" id="Layer_1" xmlns="http://www.w3.org/2000/svg" xmlns:xlink="http://www.w3.org/1999/xlink" x="0px" y="0px"
	 viewBox="0 0 112.5 35.9" style="enable-background:new 0 0 112.5 35.9;" xml:space="preserve">
<style type="text/css">
	.st0{fill:#277932;}
</style>
<g>
	<g>
		<path class="st0" d="M12,33.7H8.2v-0.5c-0.5,0.5-1.2,0.7-2.1,0.7c-2.1,0-3.1-1.1-3.1-3.4V17.9c0-2.2,1-3.4,3.1-3.4
			c0.9,0,1.6,0.2,2.1,0.7V8.8H7.3V8.1H11v25H12V33.7z M8.2,32.6V15.9c-0.4-0.4-0.9-0.6-1.3-0.6c-0.7,0-1.1,0.5-1.1,1.4v15.1
			c0,0.9,0.4,1.4,1.1,1.4C7.3,33.2,7.8,33,8.2,32.6z"/>
		<path class="st0" d="M21.9,33.7h-3.8v-0.5c-0.5,0.5-1.2,0.7-2.1,0.7c-2,0-3-1.1-3-3.4v-4.2c0-2.4,1.4-3.5,4.2-3.5h0.9v-6.1
			c0-1-0.4-1.5-1.1-1.5c-0.7,0-1.1,0.5-1.1,1.5v3.9h-2.9v-2.3c0-1.1,0.4-2,1.1-2.7c0.7-0.7,1.7-1,2.9-1c1.2,0,2.2,0.3,2.9,1
			s1.1,1.6,1.1,2.7v14.8h0.9V33.7z M18.1,32.6v-9.1h-0.8c-0.9,0-1.4,0.5-1.4,1.4v6.9c0,0.9,0.3,1.4,1,1.4
			C17.3,33.2,17.7,33,18.1,32.6z"/>
		<path class="st0" d="M32.4,33.7h-3.8V16.7c0-0.9-0.4-1.4-1.1-1.4c-0.5,0-0.9,0.2-1.3,0.6v17.2h0.9v0.7h-4.7v-0.7h0.9V15.4h-0.9
			v-0.7h3.8v0.5c0.5-0.5,1.2-0.7,2.1-0.7c2.1,0,3.1,1.1,3.1,3.4v15.2h0.9V33.7z"/>
		<path class="st0" d="M42.8,33.7H39V16.7c0-0.9-0.4-1.4-1.1-1.4c-0.5,0-0.9,0.2-1.3,0.6v17.2h0.9v0.7h-4.7v-0.7h0.9V8.8h-0.9V8.1
			h3.8v7.1c0.5-0.5,1.2-0.7,2.1-0.7c2.1,0,3.1,1.1,3.1,3.4v15.2h0.9V33.7z"/>
		<path class="st0" d="M48.1,33.7h-4.7v-0.7h0.9V8.8h-0.9V8.1h3.8v25h0.9V33.7z"/>
		<path class="st0" d="M57.6,30.2c0,1-0.4,1.9-1.2,2.7c-0.8,0.7-1.8,1.1-3,1.1s-2.2-0.4-3-1.1c-0.8-0.7-1.2-1.6-1.2-2.7V18.3
			c0-1,0.4-1.9,1.2-2.7c0.8-0.7,1.8-1.1,3-1.1s2.2,0.4,3,1.1s1.2,1.6,1.2,2.7v6.3h-5.4v7.3c0,1,0.4,1.5,1.3,1.5
			c0.8,0,1.3-0.5,1.3-1.5v-3.9h2.9V30.2z M54.8,23.9v-7.2c0-1-0.4-1.5-1.3-1.5c-0.9,0-1.3,0.5-1.3,1.5v7.2H54.8z"/>
		<path class="st0" d="M62.2,33.7h-2.8v-4.4h2.8V33.7z"/>
		<path class="st0" d="M72.3,30.2c0,1-0.4,1.9-1.2,2.7c-0.8,0.7-1.8,1.1-3,1.1s-2.2-0.4-3-1.1c-0.8-0.7-1.2-1.6-1.2-2.7V18.3
			c0-1,0.4-1.9,1.2-2.7c0.8-0.7,1.8-1.1,3-1.1s2.2,0.4,3,1.1s1.2,1.6,1.2,2.7v2.3h-2.9v-3.9c0-1-0.4-1.5-1.3-1.5
			c-0.9,0-1.3,0.5-1.3,1.5v15.1c0,1,0.4,1.5,1.3,1.5c0.8,0,1.3-0.5,1.3-1.5v-3.9h2.9V30.2z"/>
		<path class="st0" d="M82.3,30.2c0,1-0.4,1.9-1.2,2.7c-0.8,0.7-1.8,1.1-3,1.1s-2.2-0.4-3-1.1c-0.8-0.7-1.2-1.6-1.2-2.7V18.3
			c0-1,0.4-1.9,1.2-2.7c0.8-0.7,1.8-1.1,3-1.1s2.2,0.4,3,1.1s1.2,1.6,1.2,2.7V30.2z M79.4,31.8V16.7c0-1-0.4-1.5-1.3-1.5
			c-0.9,0-1.3,0.5-1.3,1.5v15.1c0,1,0.4,1.5,1.3,1.5C79,33.3,79.4,32.8,79.4,31.8z"/>
		<path class="st0" d="M98.7,33.7H95V16.7c0-0.9-0.4-1.4-1.1-1.4c-0.5,0-1.1,0.3-1.6,0.9c0.2,0.5,0.3,1.1,0.3,1.8v15.2h0.9v0.7h-3.8
			V16.7c0-0.9-0.4-1.4-1.1-1.4c-0.5,0-0.9,0.2-1.3,0.6v17.2h0.9v0.7h-4.7v-0.7h0.9V15.4h-0.9v-0.7h3.8v0.5c0.5-0.5,1.2-0.7,2.1-0.7
			c1.2,0,2,0.4,2.5,1.1c0.7-0.7,1.6-1.1,2.7-1.1c2.1,0,3.1,1.1,3.1,3.4v15.2h0.9V33.7z"/>
	</g>
	<g>
		<path class="st0" d="M105,1.3h0.3c1.2,0,2.4,0.4,3.6,1.3c0.5,0.5,0.8,0.8,0.9,1c0.8,1.1,1.1,2.2,1.1,3.3v0.3
			c0,1.2-0.4,2.4-1.3,3.6c-0.5,0.5-0.8,0.8-1,0.9c-1.1,0.8-2.2,1.1-3.3,1.1h-5.9l0,0V6.9c0-1.2,0.4-2.4,1.3-3.6
			c0.5-0.5,0.8-0.8,1-0.9C102.8,1.6,103.9,1.3,105,1.3z M104.2,7.1c0,0.4,0.2,0.8,0.7,0.9l0.3,0c0.4,0,0.8-0.2,0.9-0.7l0-0.3
			c0-0.4-0.2-0.8-0.7-0.9l-0.3,0c-0.4,0-0.8,0.2-0.9,0.7L104.2,7.1z"/>
	</g>
</g>
</svg>
